<svg viewBox="0 0 323.87 439.96" xmlns="http://www.w3.org/2000/svg" id="Layer_1"><defs><style>.cls-1{fill:none;}.cls-2,.cls-3{fill:#ec1c24;}.cls-4{fill:#31a77f;}.cls-5,.cls-6{fill:#cd966c;}.cls-7{fill:#cb9b6e;}.cls-8{fill:#231f20;}.cls-6,.cls-3,.cls-9{fill-rule:evenodd;}.cls-9{fill:#fff;}</style></defs><path d="m161.94,0h0c44.71.01,85.2,18.14,114.49,47.44,29.29,29.3,47.42,69.77,47.42,114.48h0v.02h0s0,0,0,0c0,44.71-18.13,85.2-47.43,114.49-29.3,29.29-69.77,47.42-114.48,47.42h0s-.02,0-.02,0h0c-44.71-.01-85.2-18.14-114.49-47.44C18.14,247.14.01,206.66,0,161.96h0v-.02h0s0,0,0,0c0-44.71,18.13-85.2,47.43-114.49C76.73,18.14,117.21.01,161.92,0h0s.02,0,.02,0Z" class="cls-7"></path><path d="m161.95,4.6h0s0,0,0,0h-.02c-43.42,0-82.75,17.61-111.22,46.08C22.22,79.17,4.6,118.5,4.6,161.93h0v.03h0c0,43.42,17.62,82.75,46.09,111.22,28.48,28.48,67.81,46.1,111.24,46.1h0s0,0,0,0h.02c43.42,0,82.75-17.61,111.22-46.08,28.48-28.48,46.1-67.81,46.1-111.24h0v-.03h0c0-43.42-17.62-82.75-46.09-111.22C244.71,22.22,205.37,4.6,161.95,4.6Z" class="cls-4"></path><path d="m139.31,383.04h-20.32v-154.12c-4.82-3.09-9.29-6.69-13.32-10.73-14.39-14.39-23.29-34.28-23.3-56.24h0v-.02h0s0,0,0,0c0-21.97,8.91-41.86,23.3-56.26,14.39-14.39,34.28-23.29,56.24-23.3h0s.02,0,.02,0h0c21.97.01,41.86,8.92,56.26,23.31,14.39,14.39,23.29,34.28,23.3,56.24h0v.02h0s0,0,0,0c0,21.97-8.91,41.86-23.3,56.26-4.03,4.03-8.5,7.63-13.31,10.72v182.58h-20.32v28.46h-24.93v-28.46h-20.32v-28.46Z" class="cls-7"></path><path d="m161.95,86.96h0s0,0,0,0h-.02c-20.68,0-39.42,8.39-52.98,21.95-13.57,13.57-21.97,32.31-21.97,53h0v.03h0c0,20.68,8.4,39.42,21.96,52.98,4.38,4.39,9.31,8.23,14.67,11.42v152.09h15.72v-145.03c7.14,2.26,14.73,3.48,22.61,3.48h0s0,0,0,0h.02c.76,0,1.52,0,2.28-.03v198.49h15.72v-200.64c13.46-3.32,25.49-10.28,34.98-19.78,13.57-13.57,21.97-32.31,21.97-53h0v-.03h0c0-20.68-8.4-39.42-21.96-52.98-13.57-13.57-32.31-21.97-53-21.97Z" class="cls-2"></path><polygon points="105.48 86.11 101.01 83.36 102.63 88.34 105.48 86.11" class="cls-1"></polygon><polygon points="158.86 67.47 162.48 67.41 160.57 62.52 158.86 67.47" class="cls-1"></polygon><path d="m190.86,65.71c-1.07-.29-2.03-.15-2.87.41-.85.56-1.47,1.57-1.87,3.05-.39,1.45-.35,2.64.12,3.57.47.93,1.22,1.53,2.25,1.81,1.03.28,1.98.13,2.84-.44.86-.57,1.49-1.59,1.89-3.08.39-1.47.36-2.65-.08-3.55-.45-.89-1.21-1.48-2.27-1.77Z" class="cls-1"></path><path d="m70.45,194.3c-.22-.26-.48-.42-.79-.5-.31-.07-.65-.04-1.03.1-.42.16-.71.4-.88.72-.17.32-.21.7-.13,1.13.05.21.27.83.66,1.84l.75,1.95,3.14-1.2-.71-1.85c-.46-1.2-.8-1.93-1.01-2.19Z" class="cls-1"></path><polygon points="218.11 79.9 213.81 82.91 216.78 84.98 218.11 79.9" class="cls-1"></polygon><path d="m177.58,65.61c.21-.25.33-.56.37-.96.05-.45-.03-.81-.24-1.11-.21-.3-.52-.51-.95-.62-.21-.05-.86-.13-1.94-.25l-2.08-.22-.35,3.35,1.97.21c1.28.13,2.08.17,2.41.09.33-.07.6-.24.81-.48Z" class="cls-1"></path><path d="m82.84,107.89c1.22.88,2.34,1.27,3.38,1.17,1.04-.11,1.86-.59,2.49-1.46.63-.86.83-1.8.61-2.81-.22-1-.95-1.96-2.2-2.86-1.23-.89-2.34-1.29-3.34-1.19-1,.1-1.82.6-2.47,1.49-.65.89-.87,1.84-.65,2.83.22.99.94,1.93,2.18,2.83Z" class="cls-1"></path><path d="m246.13,125.79c.28.35.6.6.95.75.36.15.84.18,1.46.09.61-.09,1.39-.35,2.32-.78.93-.43,1.6-.85,2.02-1.24.42-.4.7-.81.84-1.23.14-.43.15-.89.04-1.39-.08-.37-.35-1.06-.82-2.05l-.51-1.09-7.96,3.71.84,1.81c.32.68.58,1.15.8,1.42Z" class="cls-1"></path><path d="m66.43,154.25c1.49.18,2.66-.03,3.52-.62.85-.6,1.34-1.42,1.47-2.48.13-1.06-.14-1.98-.83-2.75-.68-.77-1.78-1.25-3.31-1.44-1.51-.19-2.67,0-3.5.58-.82.57-1.3,1.41-1.44,2.5-.13,1.1.13,2.03.8,2.79.67.76,1.76,1.24,3.28,1.42Z" class="cls-1"></path><polygon points="64.68 182.47 69.86 183.2 69.11 179.66 64.68 182.47" class="cls-1"></polygon><path d="m75.71,113.87c-.4-.2-.77-.26-1.12-.17-.35.09-.66.31-.92.66-.12.18-.43.75-.93,1.72l-.95,1.86,3,1.53.9-1.76c.58-1.15.9-1.88.95-2.22.05-.33,0-.64-.16-.92-.16-.28-.41-.51-.76-.7Z" class="cls-1"></path><path d="m241.08,207.94c-.14.38-.14.75-.03,1.11.12.36.38.65.79.89.34.2.68.28,1.02.25.34-.03.65-.17.95-.42.29-.25.74-.91,1.35-1.96l1.08-1.87-3.07-1.77-1.24,2.15c-.48.84-.77,1.38-.85,1.63Z" class="cls-1"></path><path d="m246.21,211.44c.1.36.33.64.7.86.36.21.7.28,1.03.21.34-.07.64-.28.91-.64.16-.22.55-.87,1.18-1.96l.77-1.33-2.66-1.53-.88,1.52c-.52.9-.83,1.47-.93,1.71-.18.42-.23.81-.13,1.17Z" class="cls-1"></path><path d="m257.84,164.28c-1.5-.11-2.66.16-3.48.8-.82.64-1.27,1.49-1.34,2.56-.08,1.06.25,1.96.97,2.7.72.74,1.84,1.16,3.38,1.26,1.52.11,2.67-.15,3.46-.76.79-.61,1.23-1.47,1.3-2.57.08-1.1-.24-2.02-.95-2.74-.71-.72-1.82-1.14-3.35-1.25Z" class="cls-1"></path><polygon points="240.8 222.4 237.95 218 235.77 220.89 240.8 222.4" class="cls-1"></polygon><path d="m256.17,179.69c-1.46-.34-2.65-.25-3.56.25-.91.5-1.49,1.27-1.73,2.31-.24,1.04-.06,1.98.54,2.82.59.84,1.64,1.43,3.14,1.78,1.48.34,2.66.27,3.54-.21.88-.48,1.44-1.26,1.69-2.34.25-1.08.08-2.03-.51-2.86-.58-.83-1.62-1.41-3.11-1.76Z" class="cls-1"></path><polygon points="75.4 140.6 67.05 138.36 76.79 135.43 77.48 132.83 64.67 129.4 64.02 131.81 72.58 134.1 62.62 137.05 61.94 139.57 74.76 143 75.4 140.6"></polygon><polygon points="220.72 229.21 222.3 230.79 227 226.08 234.73 233.81 236.62 231.91 227.32 222.61 220.72 229.21"></polygon><path d="m81.61,122.94l-4.93-2.51.25-.48c.28-.55.53-.93.74-1.13.22-.21.51-.36.86-.47.36-.11,1.15-.23,2.38-.37l3.45-.41,1.45-2.85-3.04.27c-1.21.1-2.08.23-2.61.38-.53.15-1.08.41-1.64.77.38-1.11.41-2.08.1-2.89-.31-.82-.91-1.45-1.8-1.9-.7-.36-1.41-.5-2.13-.43-.72.07-1.33.34-1.83.8-.5.46-1.08,1.33-1.72,2.59l-2.56,5.03,11.82,6.02,1.22-2.39Zm-4.97-7.46c-.05.34-.37,1.07-.95,2.22l-.9,1.76-3-1.53.95-1.86c.49-.97.8-1.54.93-1.72.26-.35.57-.58.92-.66.35-.09.73-.03,1.12.17.36.18.61.41.76.7.15.28.21.59.16.92Z"></path><path d="m61.23,154.54c.47.58,1.02,1.06,1.66,1.45.86.52,1.96.85,3.3,1.02,2.09.26,3.81-.12,5.15-1.13,1.33-1.01,2.12-2.49,2.36-4.45.24-1.93-.18-3.55-1.23-4.85-1.06-1.3-2.65-2.09-4.78-2.35-2.14-.26-3.89.11-5.23,1.13-1.35,1.02-2.14,2.49-2.38,4.43-.13,1.07-.08,2.04.17,2.9.18.65.51,1.26.97,1.85Zm1.13-4.5c.13-1.09.61-1.93,1.44-2.5.82-.57,1.99-.76,3.5-.58,1.53.19,2.63.67,3.31,1.44.68.77.96,1.69.83,2.75-.13,1.06-.62,1.89-1.47,2.48-.85.59-2.03.8-3.52.62-1.52-.19-2.61-.66-3.28-1.42-.67-.76-.94-1.69-.8-2.79Z"></path><path d="m78.9,107.69c.5.87,1.3,1.7,2.4,2.49,1.71,1.24,3.39,1.75,5.05,1.51,1.66-.24,3.07-1.15,4.23-2.75,1.14-1.58,1.57-3.19,1.28-4.84-.3-1.65-1.31-3.11-3.04-4.37-1.75-1.27-3.46-1.79-5.13-1.55-1.67.24-3.08,1.14-4.23,2.73-.64.88-1.06,1.75-1.26,2.62-.16.65-.17,1.35-.04,2.09.13.74.38,1.43.75,2.07Zm2.42-5.46c.65-.89,1.47-1.39,2.47-1.49,1-.1,2.11.3,3.34,1.19,1.24.91,1.98,1.86,2.2,2.86.22,1.01.02,1.94-.61,2.81-.63.86-1.46,1.35-2.49,1.46-1.03.1-2.16-.28-3.38-1.17-1.24-.9-1.96-1.84-2.18-2.83-.22-.99,0-1.93.65-2.83Z"></path><rect transform="translate(-97.07 221.38) rotate(-88)" height="13.27" width="2.68" y="154.32" x="64.75"></rect><path d="m261.38,179.95c-.41-.63-.91-1.17-1.49-1.61-.8-.6-1.86-1.05-3.18-1.36-2.06-.47-3.8-.28-5.24.58-1.43.86-2.37,2.26-2.82,4.18-.44,1.9-.2,3.55.71,4.95.92,1.41,2.42,2.35,4.51,2.83,2.1.49,3.88.29,5.32-.58,1.45-.87,2.39-2.26,2.83-4.16.24-1.05.29-2.02.13-2.9-.11-.66-.37-1.31-.78-1.94Zm-1.59,4.36c-.25,1.07-.81,1.85-1.69,2.34-.88.48-2.06.55-3.54.21-1.5-.35-2.55-.94-3.14-1.78-.6-.84-.77-1.78-.54-2.82.24-1.04.82-1.81,1.73-2.31.91-.5,2.1-.58,3.56-.25,1.49.34,2.52.93,3.11,1.76.59.83.76,1.78.51,2.86Z"></path><path d="m243.46,125.65c.42.9.84,1.58,1.26,2.03.56.61,1.15,1.03,1.75,1.26.8.31,1.71.41,2.72.3.83-.09,1.74-.36,2.73-.82,1.13-.53,2.01-1.1,2.66-1.72.64-.62,1.12-1.31,1.41-2.06.3-.75.39-1.53.26-2.33-.09-.6-.37-1.39-.84-2.39l-2.07-4.44-12.02,5.61,2.13,4.57Zm8.99-6.8l.51,1.09c.46.99.74,1.67.82,2.05.11.5.1.96-.04,1.39-.14.42-.42.83-.84,1.23-.42.39-1.09.81-2.02,1.24-.93.43-1.7.69-2.32.78-.62.09-1.1.06-1.46-.09-.36-.15-.68-.4-.95-.75-.22-.27-.48-.74-.8-1.42l-.84-1.81,7.96-3.71Z"></path><path d="m75.4,183.99l-3.18-.44-1.1-5.19,2.71-1.76-.61-2.85-11.87,7.95.59,2.77,14.05,2.3-.59-2.78Zm-10.72-1.52l4.44-2.81.75,3.54-5.19-.73Z"></path><polygon points="249.33 143.09 251.48 142.48 249.44 135.36 252.91 134.36 254.74 140.76 256.89 140.15 255.05 133.74 257.88 132.93 259.85 139.81 262.01 139.19 259.3 129.74 246.55 133.4 249.33 143.09"></polygon><polygon points="250.69 152.99 256.31 152.5 256.79 158.02 259.03 157.82 258.55 152.31 261.67 152.03 262.23 158.42 264.47 158.23 263.68 149.17 250.46 150.32 250.69 152.99"></polygon><polygon points="237.76 114.48 239.57 113.17 235.21 107.17 238.13 105.05 242.05 110.44 243.85 109.13 239.94 103.74 242.32 102.01 246.53 107.8 248.34 106.48 242.56 98.52 231.83 106.32 237.76 114.48"></polygon><rect transform="translate(9.9 199.65) rotate(-49)" height="2.68" width="13.27" y="87.62" x="217.38"></rect><polygon points="224.41 98.37 230.64 92.36 228.13 102.22 230 104.15 239.54 94.94 237.81 93.15 231.44 99.3 234.04 89.24 232.23 87.37 222.69 96.58 224.41 98.37"></polygon><polygon points="98.14 99.71 100 97.79 95.99 93.93 93.84 85.07 91.7 87.29 93.35 93.13 87.41 91.74 85.23 93.99 94.12 95.84 98.14 99.71"></polygon><path d="m263.03,163.73c-.5-.56-1.08-1.01-1.73-1.36-.89-.47-2-.75-3.35-.84-2.1-.15-3.8.32-5.08,1.39-1.28,1.08-1.99,2.6-2.13,4.57-.14,1.94.36,3.54,1.48,4.78,1.13,1.24,2.76,1.94,4.89,2.09,2.15.15,3.88-.32,5.17-1.4,1.29-1.09,2-2.6,2.14-4.55.08-1.08-.03-2.04-.32-2.89-.21-.64-.57-1.23-1.07-1.79Zm-.89,4.55c-.08,1.1-.51,1.96-1.3,2.57-.79.61-1.95.86-3.46.76-1.53-.11-2.66-.53-3.38-1.26-.72-.74-1.05-1.64-.97-2.7.07-1.07.52-1.92,1.34-2.56.82-.64,1.98-.91,3.48-.8,1.53.11,2.64.53,3.35,1.25.71.73,1.02,1.64.95,2.74Z"></path><polygon points="62.25 171.54 73.24 170.77 73.05 168.09 62.06 168.86 61.79 164.95 59.55 165.1 60.28 175.62 62.52 175.46 62.25 171.54"></polygon><path d="m178.16,69.33c-.33-.44-.77-.86-1.31-1.26,1.17-.04,2.09-.36,2.74-.94.65-.58,1.03-1.37,1.13-2.36.08-.78-.04-1.49-.36-2.14-.32-.65-.79-1.12-1.4-1.42-.61-.3-1.63-.53-3.04-.68l-5.61-.59-1.39,13.19,2.67.28.58-5.51.54.06c.61.07,1.05.16,1.33.29.27.13.52.34.74.63.22.29.62.99,1.2,2.09l1.62,3.08,3.19.33-1.34-2.74c-.53-1.09-.96-1.86-1.29-2.3Zm-3.8-3.33l-1.97-.21.35-3.35,2.08.22c1.08.11,1.73.2,1.94.25.43.12.74.33.95.62.21.3.29.67.24,1.11-.04.4-.17.72-.37.96-.21.25-.48.41-.81.48-.33.07-1.13.04-2.41-.09Z"></path><polygon points="125.51 77.98 124.21 74.61 130.43 72.22 129.63 70.14 123.41 72.52 122.36 69.78 129.04 67.21 128.23 65.12 119.05 68.64 123.81 81.03 133.23 77.41 132.42 75.32 125.51 77.98"></polygon><path d="m159.13,59.45l-4.93,13.35,2.84-.05,1.04-3.03,5.3-.09,1.21,2.99,2.91-.05-5.54-13.17-2.83.05Zm-.27,8.02l1.71-4.95,1.91,4.89-3.62.06Z"></path><polygon points="146.59 60.57 145.82 69.9 141.88 61.41 137.93 62.1 140.24 75.16 142.69 74.73 140.87 64.45 145.27 74.28 147.81 73.83 148.59 63.09 150.41 73.37 152.85 72.94 150.55 59.88 146.59 60.57"></polygon><path d="m234.91,213.31l1.75,2.69-3.19,4.24-3.1-.89-1.75,2.33,13.79,3.74,1.7-2.26-7.48-12.11-1.71,2.27Zm5.89,9.08l-5.03-1.5,2.18-2.89,2.85,4.39Z"></path><path d="m216.2,87.3l-.78,3.13,2.39,1.67,3.26-13.91-2.32-1.62-11.84,7.9,2.33,1.63,2.62-1.84,4.35,3.04Zm1.9-7.4l-1.33,5.08-2.97-2.08,4.29-3Z"></path><polygon points="211.82 236.16 213.23 237.9 218.4 233.71 225.28 242.19 227.36 240.51 219.08 230.28 211.82 236.16"></polygon><path d="m191.43,63.49c-1.04-.28-2.01-.36-2.9-.23-.67.09-1.32.33-1.96.71-.64.38-1.2.87-1.66,1.44-.63.78-1.11,1.82-1.47,3.13-.55,2.04-.41,3.79.4,5.26.81,1.46,2.17,2.45,4.08,2.96,1.88.5,3.54.32,4.98-.54,1.44-.87,2.44-2.33,2.99-4.4.56-2.09.43-3.87-.39-5.34-.82-1.48-2.17-2.47-4.06-2.97Zm1.79,7.53c-.4,1.49-1.03,2.51-1.89,3.08-.86.57-1.81.71-2.84.44-1.03-.28-1.78-.88-2.25-1.81-.47-.93-.51-2.12-.12-3.57.39-1.48,1.02-2.49,1.87-3.05.85-.56,1.81-.69,2.87-.41,1.07.29,1.82.88,2.27,1.77.45.9.48,2.08.08,3.55Z"></path><path d="m207.77,80.53l-1.97-1.88c-.63.77-1.27,1.25-1.93,1.43-.66.18-1.31.12-1.95-.19-.87-.42-1.41-1.09-1.64-1.99-.23-.9.02-2.11.76-3.62.69-1.42,1.47-2.31,2.33-2.68.86-.37,1.73-.33,2.62.1.64.31,1.1.75,1.37,1.33.28.58.33,1.21.17,1.9l2.66.6c.19-1.09.15-2.02-.15-2.79-.49-1.31-1.46-2.31-2.92-3.03-1.67-.82-3.29-.92-4.84-.33-1.56.6-2.83,1.89-3.79,3.87-.91,1.87-1.12,3.6-.63,5.18.49,1.58,1.53,2.75,3.11,3.52,1.28.62,2.49.82,3.63.6,1.14-.23,2.21-.9,3.2-2.03Z"></path><polygon points="81.03 200.21 79.1 201.33 82.8 207.75 79.67 209.55 76.34 203.78 74.41 204.9 77.74 210.67 75.19 212.14 71.62 205.94 69.67 207.06 74.59 215.58 86.08 208.95 81.03 200.21"></polygon><polygon points="115.14 83.27 109.68 73.81 107.36 75.15 113.94 86.54 122.03 81.88 120.91 79.94 115.14 83.27"></polygon><path d="m79.32,195.6l-5.17,1.98-.19-.5c-.22-.58-.34-1.01-.35-1.31,0-.3.07-.62.23-.95.16-.33.6-1,1.31-2.02l2-2.84-1.15-2.99-1.84,2.44c-.73.97-1.22,1.7-1.46,2.19-.24.5-.42,1.08-.53,1.74-.57-1.03-1.27-1.7-2.08-2.01-.82-.31-1.69-.29-2.62.07-.73.28-1.31.71-1.75,1.29-.43.58-.64,1.21-.63,1.9,0,.68.26,1.69.77,3.01l2.02,5.26,12.38-4.75-.96-2.5Zm-10.29,3.95l-.75-1.95c-.39-1.02-.61-1.63-.66-1.84-.09-.43-.05-.81.13-1.13.17-.32.46-.56.88-.72.37-.14.71-.18,1.03-.1.31.07.58.24.79.5.22.26.55.99,1.01,2.19l.71,1.85-3.14,1.2Z"></path><path d="m90.94,215.84c-.61-.78-1.17-1.35-1.68-1.7-.69-.47-1.35-.74-1.99-.83-.85-.12-1.76-.01-2.72.32-.79.27-1.62.75-2.48,1.42-.98.77-1.71,1.52-2.21,2.27-.49.75-.79,1.52-.91,2.32-.12.8-.03,1.57.27,2.33.22.56.67,1.28,1.35,2.14l3.01,3.86,10.45-8.17-3.1-3.97Zm-7.23,8.64l-.74-.95c-.67-.86-1.09-1.46-1.25-1.81-.22-.46-.31-.92-.27-1.36.04-.44.22-.91.54-1.39.32-.48.88-1.04,1.69-1.67.81-.63,1.5-1.06,2.08-1.28.58-.22,1.06-.3,1.44-.24.38.07.75.24,1.1.51.27.21.64.61,1.1,1.2l1.23,1.58-6.92,5.41Z"></path><polygon points="255.86 196.8 245.57 192.85 244.61 195.35 254.9 199.3 253.49 202.97 255.59 203.77 259.37 193.93 257.27 193.13 255.86 196.8"></polygon><path d="m98.01,81.77l4.1,13.64,2.24-1.75-.99-3.05,4.18-3.27,2.77,1.66,2.3-1.8-12.35-7.18-2.23,1.74Zm7.47,4.34l-2.85,2.23-1.62-4.98,4.47,2.76Z"></path><polygon points="95.4 221.63 93.85 223.24 99.18 228.39 96.67 230.98 91.88 226.36 90.33 227.96 95.12 232.59 93.08 234.7 87.93 229.73 86.37 231.35 93.44 238.18 102.66 228.64 95.4 221.63"></polygon><path d="m240.31,204.64c-.84,1.48-1.36,2.43-1.54,2.84-.29.66-.4,1.28-.35,1.87.05.59.26,1.15.61,1.68.35.53.79.94,1.32,1.24.66.38,1.35.53,2.06.44.71-.09,1.37-.43,1.97-1.01-.06.62.05,1.21.33,1.76.28.55.69.98,1.23,1.29.49.28,1.01.43,1.55.42.54,0,1.02-.11,1.47-.32.45-.22.83-.52,1.17-.93.34-.4.76-1.06,1.29-1.97l2.65-4.59-11.49-6.63-2.26,3.91Zm6.96,3.93l.88-1.52,2.66,1.53-.77,1.33c-.63,1.09-1.02,1.74-1.18,1.96-.27.36-.57.57-.91.64-.33.07-.68,0-1.03-.21-.37-.21-.61-.5-.7-.86-.1-.36-.05-.75.13-1.17.1-.24.41-.8.93-1.71Zm-1.04-2.62l-1.08,1.87c-.61,1.05-1.06,1.71-1.35,1.96-.29.25-.61.39-.95.42-.34.03-.68-.06-1.02-.25-.41-.24-.67-.53-.79-.89-.11-.36-.11-.73.03-1.11.08-.25.37-.79.85-1.63l1.24-2.15,3.07,1.77Z"></path><polygon points="105.85 238.38 101.49 234.97 100.1 236.74 104.47 240.15 102.54 242.62 97.48 238.67 96.1 240.44 103.27 246.04 111.43 235.59 109.32 233.94 105.85 238.38"></polygon><path d="m143.92,239.45v167.46h15.72v-165.45c-5.39-.15-10.65-.84-15.72-2.02Z" class="cls-4"></path><path d="m184.56,238.24v168.67h15.72v-175.24c-4.94,2.72-10.2,4.94-15.72,6.57Z" class="cls-4"></path><path d="m161.94,84.67c1.65,0,3.28.06,4.9.16,3.43,14.22,11.75,27.35,24.51,36.62,12.77,9.28,27.82,13.13,42.42,11.99,1.2,3.02,2.21,6.13,3.03,9.32-12.48,7.66-22.39,19.63-27.27,34.64-4.88,15.01-3.89,30.51,1.69,44.03-2.51,2.09-5.16,4.01-7.93,5.77-11.14-9.49-25.58-15.22-41.36-15.22s-30.22,5.73-41.36,15.22c-2.77-1.76-5.42-3.69-7.93-5.77,5.59-13.52,6.57-29.03,1.69-44.03-4.88-15.01-14.79-26.99-27.27-34.64.82-3.19,1.83-6.3,3.03-9.32,14.6,1.14,29.65-2.71,42.42-11.99,12.76-9.27,21.08-22.4,24.51-36.62,1.62-.1,3.25-.16,4.9-.16Z" class="cls-9"></path><path d="m57.38,228.6l1.59,2.27c1.48,2.12,2.97,3.83,4.47,5.14,1.91,1.65,3.32,2.15,4.25,1.5.83-.58,1.63-1.36,2.39-2.32.75-.95,1.52-1.93,2.29-2.92.77-.99,1.57-1.77,2.38-2.34.48-.34.95-.61,1.39-.82.45-.21,1.05-.44,1.81-.71-.83,1.07-1.66,2.13-2.49,3.19-1.58,2.02-2.79,3.54-3.62,4.56-1.31,1.6-2.13,2.51-2.46,2.75-1.63,1.14-3.13,1.68-4.47,1.61-1.36-.07-2.73-.67-4.14-1.79-1.12-.89-2.58-2.38-4.39-4.48-.25,1.37-.39,2.21-.41,2.51-.05,1.01.15,1.84.62,2.51.29.42.71.73,1.23.93.42.16,1.03.29,1.83.37l.06,1.27c-1.23.29-2.29.39-3.21.31-1.5-.14-2.65-.76-3.41-1.86-.55-.79-.81-1.78-.78-2.99.03-.99.24-2.13.64-3.41.19-.63.56-1.62,1.11-2.97l3.33-2.33h0Zm254.54-91.35l-3.66-1.09,1.17-4.11,3.63,1.01-1.14,4.19h0Zm-3.17-4.82l1.12-4.15-3.67-.99-1.13,4.1,3.68,1.03h0Zm-22.99,15.96l-.6-2.83c-.23-1.1.5-2.27,2.2-3.5,1.26-.92,2.96-1.81,5.09-2.66-.95-.28-1.73-.71-2.36-1.31-.62-.6-1.02-1.29-1.18-2.06-.37-1.75-.56-3.24-.57-4.45-.01-1.22.17-1.86.53-1.94,1.3-.28,2.94.26,4.89,1.63,1.95,1.37,3.79,3.2,5.52,5.51.12-.06.42-.19.92-.4.5-.21.81-.33.93-.35.52-.11,1.14-.05,1.85.16.58.18,1.19.44,1.84.8-.91.36-1.79.71-2.64,1.05-.85.35-1.73.73-2.63,1.14l-3.78,1.52c-2.08.84-3.6,1.52-4.58,2.05-1.48.8-2.17,1.46-2.07,1.96l.69,3.27-1.2.25.71-.04.11,2.1c.07,1.31.27,2.51.61,3.61.39,1.26.98,2.48,1.76,3.67l1.21-1.04c.57-.53.84-1.11.8-1.73-.01-.28-.08-.52-.19-.73-.11-.22-.35-.45-.71-.69l-.03-.49,1.38-.07c1.71-.09,2.9.3,3.59,1.17.62.8.99,2.21,1.09,4.25.09,1.76-.06,3.2-.48,4.33-.53,1.48-1.42,2.25-2.69,2.32-.67.03-1.38-.22-2.11-.76-.55-.38-1.33-1.12-2.32-2.19-.36.27-.64.77-.86,1.48-.21.72-.3,1.32-.28,1.81l.18,3.42-.68.04-.36,3.44c-.15,1.41.08,2.7.67,3.88.47.91,1.17,1.76,2.1,2.57,1.27,1.09,2.32,2.37,3.19,3.85.77,1.33,1.23,2.53,1.36,3.6-1.74.9-3.29,1.59-4.66,2.09-1.85.67-3.33.94-4.43.82l-4.04-.42.25-2.41c.11-1.04.47-2.19,1.07-3.44.7-1.44,1.58-2.69,2.65-3.74-1.01-1.01-1.67-2.01-2-2.99-.33-.98-.4-2.37-.21-4.16l.38-3.62.62.07-.15-2.77c-.05-1.01.14-2.05.56-3.12.51-1.27,1.26-2.22,2.26-2.83-.99-.99-1.77-2.14-2.35-3.45-.73-1.6-1.15-3.44-1.25-5.52l-.11-2.1.47-.03h0Zm8.61-9.7l2.39-.96c-.75-1.23-1.46-2.17-2.14-2.81-.67-.66-1.48-1.15-2.43-1.5-.07.35-.1.74-.08,1.19.01.45.1,1.04.26,1.79.19.91.86,1.67,2,2.3h0Zm-5.94,47.63c.92-.1,1.83-.32,2.74-.65.76-.28,1.56-.67,2.4-1.18-.11-.76-.39-1.42-.85-1.99-.29-.38-.79-.84-1.52-1.38-.66.49-1.29,1.22-1.87,2.18-.59.96-.98,1.89-1.19,2.78l.29.24h0Zm-8.61,13.76l.85-3.16c.27-1.02.91-1.73,1.91-2.13.86-.35,2.05-.47,3.55-.36,1.51.11,3.33.36,5.45.77,1.73.37,3.49.74,5.31,1.12,1.81.38,3.2.61,4.18.71.97.09,1.78.08,2.44-.04.81-.14,1.56-.42,2.26-.86l3.63,3.94c-1.96.1-4.23-.06-6.8-.49-1.61-.27-5.35-1.11-11.22-2.52-2.74-.45-4.57-.51-5.46-.21-.74.25-1.18.62-1.32,1.12l-.85,3.16-1.61-.43,2.13.95-7.74,17.39c1.77-.96,3.19-1.79,4.26-2.5,1.33-.89,2.4-1.77,3.22-2.63.91-.97,1.63-2.05,2.16-3.24.32-.72.6-1.48.82-2.26.87.88,1.48,1.8,1.82,2.75.49,1.38.41,2.81-.25,4.29-.65,1.45-2.12,2.85-4.41,4.19-1.15.67-3.22,1.66-6.19,2.99-2.32,1.04-3.68,1.83-4.08,2.38l-.57,1.28-.19-.08.04.02-5,7.69,18.12,8.46,1.15-.71c.9.59,1.69,1.21,2.38,1.88.69.67,1.3,1.41,1.84,2.2l-.4.16c-.76-.49-1.6-.44-2.53.16-.69.49-1.38.98-2.07,1.47-.66-.43-1.31-.93-1.99-1.51-.68-.59-1.15-1.07-1.42-1.46l.93-.74-16.86-7.66-3.84-2.5,6.28-9.67.09.06,10.61-23.83-.62-.17h0Zm-10.03,11.64l3.35-2.6-2.37-3.06-3.34,2.68,2.36,2.97h0Zm-6.61,31.87c1.29.9,3.27,2.13,5.96,3.66,2.16,1.24,4.61,2.59,7.35,4.04,2.75,1.46,4.92,2.59,6.51,3.4-.36-.69-.76-1.43-1.19-2.21-.42-.78-.82-1.49-1.21-2.14-1.78-.93-3.52-1.85-5.22-2.78-2.79-1.52-5.45-3-7.98-4.46-2.52-1.46-4.45-2.64-5.78-3.57-.16-.12-.48-.36-.94-.73-.46-.37-.87-.71-1.21-1l-.44.21c.66,1.42,1.18,2.4,1.56,2.94.7,1.04,1.56,1.92,2.58,2.63h0Zm-213.64-29.33l3.96,8.49c.37.8.47,1.64.31,2.49-.17.86-.57,1.44-1.2,1.74-.53.25-1.03.45-1.5.59-.46.15-1,.26-1.59.35l-.23-.49c.5-.43.79-.9.85-1.43.05-.43-.06-.95-.33-1.54l-3.82-8.19c-2.53,1.18-4.39,2.48-5.6,3.9-1.51,1.77-2.11,3.82-1.79,6.16l-4.26,1.6c.06-3,1.17-5.62,3.32-7.86,1.74-1.8,4.31-3.5,7.73-5.09l.05-.02-2.67-6.62c-.36-.89-.71-1.64-1.02-2.24-.32-.6-.74-1.22-1.25-1.88.64,2.63.95,4.38.93,5.24-.05,1.95-.95,3.27-2.68,3.97-1.52.61-3.11.8-4.77.54-1.88-.28-3.08-1.06-3.59-2.35-.59-1.47-.11-2.97,1.46-4.49,1.24-1.21,2.87-2.22,4.89-3.04l3.63-1.47-2.25-8.4-18.41,7.81-.25,1.33c-1.04.28-2.03.45-2.99.51-.96.06-1.92.03-2.87-.11l.16-.4c.87-.23,1.39-.89,1.57-1.99.1-.84.19-1.68.29-2.52.76-.2,1.57-.35,2.46-.47.89-.11,1.57-.14,2.03-.08l-.07,1.18,16.97-7.4,4.43-1.19,2.73,10.2.04-.02,5.32,13.16h0Zm-29.06-2.49l-.67,3.39,3.63.7.68-3.42-3.64-.67h0Zm3.3,4.43l-.68,3.26,3.63.62.68-3.37-3.63-.52h0Zm13.67-10.11c-1.02.8-1.75,1.46-2.19,1.99-.84,1.03-1.09,1.96-.75,2.8.16.41.46.69.89.85.44.16.87.16,1.31-.02,1.09-.44,1.6-1.31,1.51-2.6-.03-.45-.28-1.46-.76-3.02h0Zm-3.43-22.26c-1.55.3-3.81.88-6.77,1.74-2.39.69-5.06,1.51-8.01,2.48-2.96.96-5.28,1.74-6.97,2.32.75.22,1.56.45,2.41.68.85.24,1.65.44,2.38.62,1.91-.64,3.78-1.25,5.62-1.82,3.03-.95,5.94-1.84,8.75-2.64,2.8-.8,4.99-1.37,6.58-1.68.2-.04.59-.09,1.18-.16.59-.07,1.11-.13,1.56-.17l.15-.46c-1.48-.51-2.55-.81-3.2-.92-1.24-.22-2.46-.21-3.68.03h0Zm-16.98-35.34l3.19,2.1-2.33,3.6-3.18-2.04,2.31-3.66h0Zm1.63,5.53l-2.29,3.64,3.22,2.02,2.28-3.6-3.22-2.06h0Zm13.41-6.28c2.19.19,3.8.69,4.84,1.5,1.61,1.25,2.29,3.34,2.04,6.27-.1,1.13-.41,2.04-.92,2.75-.59.8-1.36,1.17-2.3,1.09-1.08-.09-2.32-.47-3.69-1.14-1.17-.61-2.34-1.21-3.52-1.84l-.13.34-3.81-1.77c1.71-2.67,2.8-4.27,3.23-4.77,1.47-1.75,2.9-2.56,4.27-2.44h0Zm1.64,2.18c-.59-.05-1.45.73-2.57,2.35-.49.69-.97,1.44-1.44,2.24.69.77,1.13,1.23,1.3,1.38.57.49,1.13.76,1.67.8.79.07,1.43-.09,1.91-.5.48-.41.76-.98.82-1.72.08-.87-.09-1.84-.49-2.91-.4-1.07-.8-1.61-1.2-1.65h0Zm10.07-26.25c1.64.42,3.18,1.56,4.6,3.41,1.26,1.63,2.23,3.51,2.9,5.63.65,2.03.83,3.61.55,4.74-.26,1.04-.69,2.13-1.3,3.27-.45.86-1.08,1.87-1.88,3.04-.68.99-1.36,1.97-2.04,2.93l-.81-.61c.45-.95.91-1.93,1.38-2.96.47-1.03.82-1.99,1.03-2.86.48-1.93.37-4.11-.35-6.51-.66-2.18-1.68-4.16-3.08-5.94-1.4-1.78-2.78-2.84-4.18-3.19-1.19-.3-2.53-.26-4.02.11-1.2.29-2.48.81-3.85,1.55l-3.23-2.18c1.45-.95,2.84-1.58,4.13-1.89,1.47-.34,3-.31,4.6.09l1.56.39,6.54-16.2c-1.94.39-3.73,1.01-5.39,1.84-1.66.84-3.59,2.1-5.79,3.78l.38.99-2.98,1.77c-1.12.59-1.88.8-2.29.63-2.48-1-4.19-2.4-5.11-4.18-.85-1.65-1.23-4.06-1.16-7.24l.09-7.06,3.75,1.51-.31,5.13c-.14,2.04-.19,3.72-.15,5.03.05,1.66.24,2.57.58,2.7.33.13,1.03-.12,2.1-.76.66-.41,1.34-.82,2-1.24,2.55-1.52,5.05-2.73,7.54-3.62,2.66-.97,5.25-1.57,7.77-1.8l3.27,1.32-2.96-1.85,4.86-7.78-18.26-8.14-1.14.73c-.91-.57-1.71-1.18-2.41-1.84-.7-.66-1.33-1.38-1.88-2.17l.4-.16c.77.48,1.6.41,2.53-.21.68-.5,1.36-1,2.04-1.51.66.41,1.33.91,2.02,1.48.69.58,1.17,1.05,1.45,1.43l-.91.75,16.99,7.36,3.89,2.43-6.11,9.78h-.02s-7.31,18.08-7.31,18.08h0Zm14.18-72.14l1.02,3.68-4.11,1.19-1.07-3.62,4.15-1.25h0Zm-2.41,5.24l1.07,3.67-4.08,1.21-1.11-3.64,4.12-1.25h0Zm24.93,11.8l-1.3,1.25c-.81.78-2.19.77-4.13-.01-1.45-.58-3.11-1.55-4.95-2.91.26.95.31,1.85.13,2.7-.18.84-.56,1.55-1.12,2.09-1.29,1.25-2.45,2.19-3.47,2.84-1.03.66-1.67.85-1.93.57-.92-.96-1.33-2.63-1.21-5.02.13-2.38.71-4.91,1.75-7.6-.11-.07-.39-.26-.82-.57-.45-.31-.71-.51-.79-.6-.37-.38-.65-.94-.84-1.65-.15-.58-.26-1.25-.3-1.98.78.58,1.55,1.14,2.29,1.68.75.54,1.53,1.08,2.36,1.62l3.29,2.4c1.82,1.32,3.2,2.25,4.16,2.79,1.47.83,2.39,1.07,2.76.71l2.4-2.32.14.15,8.09-6.55c-1.16-1.43-2.2-2.38-3.16-2.86-.65-.33-1.83-.62-3.52-.87l-.98-4.1c1.76.39,3,.81,3.72,1.25,1.07.67,2.49,2.07,4.24,4.23l1.16,1.43,9.37-6.09c-1-1.54-1.94-2.6-2.84-3.17-.61-.4-1.75-.81-3.41-1.23l-.55-4.18c1.71.57,2.9,1.12,3.57,1.64,1,.78,2.26,2.32,3.77,4.65l3.1,4.78-11.16,7.25-.07-.11-9.69,7.85-.05-.07h0Zm-12.01-2.92l-2.09-1.52c-.64,1.29-1.06,2.39-1.25,3.3-.2.92-.19,1.87.02,2.85.34-.12.68-.31,1.05-.56.37-.25.83-.63,1.38-1.17.67-.65.96-1.62.89-2.91h0Zm25.25-1.69l-4.24.88.73,3.69,4.21-.82-.7-3.75h0Zm-2.86,5.01l-4.21.88.79,3.72,4.18-.86-.76-3.75h0Zm11.68-9.26l-4.33.44.41,3.8,4.24-.42-.32-3.82h0Zm21.29-16.14c.59,1.51.6,3.34.05,5.49-.51,2-1.39,3.92-2.65,5.75-1.2,1.76-2.33,2.88-3.39,3.35-.98.44-2.1.76-3.37.99-.96.17-2.14.3-3.55.39-1.2.07-2.39.14-3.56.2l-.02-1.01c1.02-.23,2.08-.47,3.18-.74,1.1-.26,2.07-.58,2.89-.95,1.82-.81,3.46-2.24,4.92-4.28,1.32-1.86,2.25-3.89,2.79-6.08.54-2.2.52-3.94-.06-5.25-.5-1.12-1.35-2.15-2.56-3.1-.97-.76-2.17-1.46-3.59-2.09l-.27-3.89c1.65.56,2.99,1.26,4.03,2.09,1.17.94,2.09,2.17,2.76,3.68l1.93,4.33-.6-2.81,2.06-.44c1.28-.27,2.43-.66,3.47-1.17,1.18-.58,2.3-1.35,3.35-2.31l-1.22-1.03c-.61-.48-1.22-.65-1.83-.52-.27.06-.5.16-.69.3-.2.15-.39.42-.57.8l-.48.1-.29-1.35c-.36-1.68-.16-2.92.59-3.73.69-.74,2.03-1.32,4.02-1.74,1.72-.37,3.17-.44,4.35-.21,1.54.29,2.45,1.05,2.71,2.29.14.66,0,1.39-.42,2.21-.29.61-.9,1.49-1.8,2.63.33.31.86.52,1.6.61.75.09,1.36.09,1.83,0l3.35-.71.48,2.26-.19-2.74,3.56-.25c1.41-.1,2.65-.54,3.7-1.34.81-.62,1.54-1.46,2.16-2.52.85-1.43,1.93-2.7,3.24-3.81,1.18-.98,2.28-1.65,3.31-1.96,1.19,1.56,2.14,2.97,2.87,4.23.98,1.71,1.51,3.11,1.58,4.22l.02.28,8.59.6-1.38-19.95-1.18-.67c.08-1.07.24-2.07.49-2.99.26-.93.6-1.82,1.03-2.68l.33.28c-.06.9.39,1.61,1.37,2.13.76.36,1.52.73,2.29,1.09-.05.78-.18,1.6-.36,2.48-.19.88-.38,1.53-.58,1.95l-1.09-.45,1.47,18.46-.32,4.57-11.5-.8v-.16s-1.31.09-1.31.09c-1.04.07-2.24-.08-3.57-.45-1.54-.44-2.92-1.09-4.14-1.96-.82,1.17-1.69,1.99-2.6,2.49-.91.49-2.26.81-4.07.93l-3.45.24.09.42-3.35.71c-.99.21-2.05.18-3.17-.07-1.34-.3-2.39-.9-3.15-1.79-.83,1.13-1.84,2.09-3.04,2.86-1.46.97-3.22,1.67-5.26,2.1l-1.82.39h0Zm7.48-23.82l-4.13-1.15-1.01,3.7,4.11,1.13,1.03-3.68h0Zm29.46,13.37c-.26-.88-.63-1.75-1.12-2.59-.41-.7-.93-1.42-1.58-2.16-.72.24-1.33.64-1.81,1.18-.32.35-.69.93-1.09,1.74.6.57,1.42,1.06,2.47,1.47,1.05.41,2.03.64,2.94.69l.18-.32h0Zm22.13.65c-.13,1.24-.48,2.41-1.05,3.53-.29.59-.9,1.52-1.82,2.79l-.4-.28c.09-.44.19-.96.29-1.54.1-.58.17-.98.19-1.17.17-1.61.27-3.87.32-6.79.05-2.92.06-5.96.03-9.14-.01-1.93-.05-3.9-.1-5.91.38-.65.81-1.35,1.29-2.09.48-.75.93-1.46,1.36-2.11.06,1.78.12,4.24.18,7.34.06,3.1.06,5.9.02,8.39-.04,3.09-.15,5.42-.32,6.99h0Zm42.61-9.65l-2.99,2.38-2.7-3.32,2.91-2.39,2.77,3.33h0Zm-5.76-.17l-2.96,2.42-2.71-3.28,2.92-2.44,2.76,3.3h0Zm-.37,27.88l-2.4-1.02c-1.03-.44-1.57-1.71-1.6-3.81-.03-1.56.22-3.47.74-5.69-.77.62-1.58,1.01-2.43,1.18-.85.16-1.64.09-2.37-.22-1.65-.7-2.97-1.4-3.97-2.08-1.01-.69-1.43-1.2-1.28-1.55.52-1.23,1.9-2.26,4.15-3.07,2.24-.81,4.8-1.27,7.68-1.36.02-.13.09-.46.2-.98.11-.53.2-.85.24-.96.21-.49.61-.96,1.19-1.42.48-.37,1.04-.73,1.71-1.05-.23.95-.45,1.87-.65,2.76-.2.9-.4,1.83-.57,2.81l-.92,3.97c-.5,2.19-.82,3.83-.95,4.92-.19,1.68-.05,2.62.42,2.82l3.07,1.31-.03.06,9.84,5.68c.92-1.59,1.43-2.91,1.54-3.97.08-.72-.07-1.93-.45-3.6l3.47-2.38c.27,1.78.32,3.09.16,3.92-.24,1.24-1.04,3.07-2.43,5.47l-1.05,1.82,13.9,9.74c.06-1.97-.14-3.87-.58-5.67-.45-1.8-1.24-3.97-2.38-6.49l-1.05.15-1.05-3.31c-.32-1.22-.35-2.01-.1-2.37,1.54-2.19,3.28-3.54,5.22-4.04,1.8-.45,4.24-.28,7.32.5l6.86,1.68-2.32,3.31-4.93-1.46c-1.96-.59-3.59-1.02-4.87-1.28-1.63-.33-2.56-.34-2.76-.05-.21.29-.12,1.03.27,2.21.25.74.5,1.49.75,2.23.91,2.83,1.52,5.54,1.83,8.16.35,2.81.35,5.47,0,7.98l-1.44,2.06,1.33-1.33,6.49,6.49,12.04-15.96-.45-1.27c.76-.76,1.54-1.4,2.33-1.94.8-.53,1.65-.98,2.54-1.34l.07.43c-.64.64-.76,1.47-.37,2.51.33.77.67,1.55,1.01,2.33-.55.55-1.18,1.09-1.89,1.63-.72.54-1.29.91-1.72,1.09l-.53-1.06-11,14.9-.66.66,1.73,2.07c.91,1.09,2,1.82,3.26,2.21.98.29,2.08.39,3.31.27,1.66-.15,3.32-.03,4.99.39,1.49.37,2.67.88,3.53,1.52-.56,1.87-1.14,3.48-1.73,4.8-.8,1.8-1.64,3.05-2.48,3.76l-.87.73.58-.35,4.73,7.86,15.55-12.58-.13-1.35c.92-.55,1.83-.99,2.73-1.32.9-.32,1.83-.55,2.78-.69l-.04.43c-.77.47-1.09,1.24-.96,2.35.14.83.28,1.67.42,2.5-.67.4-1.41.77-2.23,1.13-.83.35-1.47.57-1.93.64l-.26-1.16-14.27,11.79-3.93,2.36-5.94-9.89.36-.22-1.26-1.5c-.67-.8-1.25-1.86-1.73-3.15-.55-1.51-.83-3-.84-4.5-1.43.02-2.61-.19-3.54-.64-.93-.44-1.98-1.36-3.14-2.74l-2.34-2.79.25-.21-7.31-7.31.44-.44-16.55-11.59.22-.32-10.57-6.1h0Zm-2.75-12.51l.58-2.51c-1.43-.09-2.61-.04-3.53.14-.92.17-1.79.56-2.62,1.13.24.26.56.51.93.75.37.24.91.51,1.61.81.86.36,1.87.26,3.03-.32h0Zm11.83,23.16l-2.34-3.64-3.18,2.01,2.27,3.63,3.25-2h0Zm-5.7-.87l-2.33-3.61-3.19,2.07,2.3,3.59,3.23-2.05h0Zm45.09,26.86c.56-.73,1.04-1.54,1.44-2.43.33-.74.6-1.59.82-2.55-.62-.45-1.3-.7-2.02-.77-.47-.05-1.15-.01-2.05.14-.11.82-.02,1.78.27,2.86.28,1.1.68,2.02,1.17,2.79l.37-.04h0Zm12.53,20.42c1.44-.64,3.51-1.71,6.21-3.22,2.17-1.21,4.59-2.61,7.25-4.21,2.66-1.6,4.75-2.88,6.27-3.83-.78-.05-1.62-.08-2.51-.12-.88-.04-1.7-.06-2.45-.07-1.71,1.05-3.4,2.06-5.07,3.04-2.74,1.61-5.38,3.13-7.93,4.54-2.55,1.41-4.56,2.46-6.04,3.12-.18.08-.56.22-1.11.42-.56.2-1.05.38-1.48.52l-.05.48c1.55.16,2.66.22,3.33.18,1.25-.06,2.44-.35,3.58-.85Z"></path><path d="m125.35,301.31v-25.89h12.21v4.38h-8.62v6.12h7.45v4.38h-7.45v11h-3.59Zm60.96,0v-25.89h12.21v4.38h-8.62v6.12h7.46v4.38h-7.46v11h-3.59Zm-22.82,0v-25.89h5.38l3.23,17.66,3.2-17.66h5.39v25.89h-3.33v-20.38l-3.54,20.38h-3.47l-3.51-20.38v20.38h-3.35Zm-19.72,0v-25.89h7.57c1.94,0,3.32.24,4.15.7.83.46,1.51,1.27,2.04,2.42.54,1.15.8,2.53.8,4.12,0,2.02-.4,3.66-1.22,4.89-.82,1.24-1.98,2.01-3.47,2.33.77.66,1.41,1.38,1.91,2.16.51.78,1.19,2.19,2.06,4.21l2.16,5.05h-4.28l-2.61-5.64c-.94-2.03-1.57-3.31-1.91-3.82-.33-.51-.69-.86-1.07-1.06-.37-.19-.98-.29-1.81-.29h-.74v10.81h-3.59Zm3.59-14.94h2.67c1.63,0,2.67-.08,3.11-.25.45-.17.8-.51,1.08-1.03.27-.52.41-1.21.41-2.07s-.14-1.49-.41-1.99c-.28-.5-.65-.84-1.13-1.03-.33-.13-1.31-.19-2.92-.19h-2.82v6.57Z" class="cls-8"></path><path d="m183.98,147.56c3.06.69,6.22,2.12,8.73,4.12,2.73,2.22,4.73,5.4,5.69,9.01,1.22,4.54.77,9.33-.58,13.8l-.14.49c-2.45-.38-4.85-.74-7.23-1.07,2.25-3.4,3.46-7.44,3.25-11.71-.19-3.43-1.32-7.18-3.47-9.72-1.76-2.08-3.88-3.8-6.26-4.91h0Zm4.84,26.12c2.37-3.24,3.66-7.2,3.47-11.42-.16-3.07-1.16-6.43-3.09-8.72-1.9-2.25-4.34-4.11-7.01-5.04-3.49-1.23-6.92-.73-10.17.94.67.7,1.3,1.44,1.9,2.2,2.57-1.46,5.57-2.15,8.34-1.07,2.22.82,4.15,2.64,5.24,4.97,1.19,2.5,1.42,5.79.93,8.51-.68,3.61-2.54,6.5-5.05,8.76l-.29.15c1.9.22,3.81.46,5.73.73Z" class="cls-6"></path><path d="m140.1,147.52c-3.13.67-6.37,2.12-8.94,4.17-2.73,2.22-4.73,5.4-5.69,9.01-1.22,4.54-.77,9.33.58,13.8l.13.45s.07-.01.1-.02c2.42-.38,4.83-.74,7.24-1.07-2.23-3.39-3.42-7.4-3.22-11.66.16-3.43,1.32-7.18,3.47-9.72,1.76-2.1,3.93-3.84,6.33-4.95h0Zm-4.96,26.11c-2.35-3.23-3.62-7.18-3.43-11.37.16-3.07,1.16-6.43,3.09-8.72,1.9-2.25,4.31-4.11,6.98-5.04,3.47-1.22,6.89-.74,10.13.92-.7.71-1.35,1.46-1.97,2.23-2.54-1.47-5.56-2.17-8.33-1.08-2.22.82-4.15,2.64-5.24,4.97-1.19,2.5-1.42,5.79-.93,8.51.67,3.61,2.54,6.5,5.05,8.76l.29.15c-1.88.21-3.75.43-5.64.68Z" class="cls-6"></path><path d="m126.4,175.84c-4.95.79-4.05,5.61-.51,4.25,2.8-1.11,5.66-1.93,8.59-2.68,9.52-2.47,19.2-4,29.01-4,4.92,0,9.74.43,14.6,1.29,5.08.93,10.07,2.25,15.05,3.79,1.7.54,3.41,1.18,5.15,1.72.84.29,1.93.32,2.44-.64.32-.61.29-1.39.03-2-.39-.86-1.16-1.32-1.99-1.46-11.77-1.82-23.38-3.4-35.31-3.47-12.44-.04-24.76,1.29-37.04,3.22Z" class="cls-6"></path><path d="m179.85,172.06c0-12.94-7.01-23.88-17.88-28.49-11.42,5.25-17.49,14.87-17.91,28.52v.53c2.57-.25,5.14-.45,7.71-.6-.06-10.12,1.73-21.81,9.94-27.73l.26-.14.22.14c8.22,5.91,9.96,17.58,9.97,27.69,2.58.15,5.13.37,7.68.62v-.54h0Zm-17.88-23.62c1.25,0,2.22,1.07,2.22,2.47s-.97,2.43-2.22,2.43-2.19-1.07-2.19-2.43.96-2.47,2.19-2.47h0Zm.03,17.55c1.22,0,2.22,1.07,2.22,2.47s-1,2.43-2.22,2.43-2.22-1.07-2.22-2.43,1-2.47,2.22-2.47h0Zm-9.4,5.99c-.06-9.66,1.61-20.95,9.37-26.72,7.72,5.76,9.35,17,9.33,26.68-2.58-.14-5.19-.22-7.85-.23-.19,0-.37,0-.56,0,1.26-.42,2.17-1.73,2.17-3.25,0-1.25-.58-2.34-1.47-2.94.9-.59,1.5-1.67,1.5-2.92s-.6-2.34-1.48-2.94c.87-.6,1.45-1.69,1.45-2.93s-.6-2.33-1.49-2.92c.9-.6,1.49-1.68,1.49-2.91,0-1.89-1.38-3.43-3.09-3.43s-3.05,1.54-3.05,3.43c0,1.23.61,2.32,1.51,2.92-.89.6-1.47,1.68-1.47,2.91s.59,2.34,1.47,2.94c-.88.6-1.47,1.69-1.47,2.92s.6,2.32,1.49,2.91c-.9.6-1.49,1.7-1.49,2.95,0,1.53.91,2.84,2.18,3.26-2.85.02-5.69.12-8.53.27h0Zm9.12-12.8c-1.09-.15-1.94-1.19-1.94-2.45s.84-2.28,1.92-2.44c.09,0,.18.01.27.01.1,0,.21,0,.31-.02,1.09.15,1.94,1.19,1.94,2.45s-.84,2.28-1.92,2.44c-.09,0-.18-.01-.27-.01-.1,0-.21,0-.31.02h0Zm0,5.86c-1.08-.16-1.92-1.2-1.92-2.44s.84-2.28,1.92-2.44c.09,0,.18.01.27.01.1,0,.21,0,.31-.02,1.09.15,1.94,1.19,1.94,2.45s-.85,2.3-1.94,2.45c-.1-.01-.2-.02-.31-.02-.09,0-.18,0-.27.01Z" class="cls-6"></path><ellipse ry="2.47" rx="2.22" cy="168.77" cx="121.19" class="cls-5"></ellipse><path d="m121.52,159.65c1.22,0,2.22,1.07,2.22,2.47s-1,2.43-2.22,2.43-2.22-1.07-2.22-2.43,1-2.47,2.22-2.47Z" class="cls-6"></path><path d="m123.38,153.26c1.22,0,2.22,1.11,2.22,2.47s-1,2.47-2.22,2.47-2.22-1.11-2.22-2.47,1-2.47,2.22-2.47Z" class="cls-6"></path><path d="m126.98,147.86c1.22,0,2.22,1.11,2.22,2.47s-1,2.47-2.22,2.47-2.22-1.11-2.22-2.47,1-2.47,2.22-2.47Z" class="cls-6"></path><path d="m131.87,143.96c1.22,0,2.22,1.11,2.22,2.47s-1,2.47-2.22,2.47-2.22-1.11-2.22-2.47,1-2.47,2.22-2.47Z" class="cls-6"></path><path d="m137.4,141.5c1.22,0,2.22,1.11,2.22,2.47s-1,2.47-2.22,2.47-2.22-1.11-2.22-2.47,1-2.47,2.22-2.47Z" class="cls-6"></path><path d="m143.29,140.53c1.22,0,2.22,1.07,2.22,2.43s-1,2.47-2.22,2.47-2.22-1.11-2.22-2.47,1-2.43,2.22-2.43Z" class="cls-6"></path><path d="m202.68,166.3c-1.22,0-2.22,1.11-2.22,2.47s1,2.47,2.22,2.47,2.22-1.11,2.22-2.47-1-2.47-2.22-2.47Z" class="cls-6"></path><path d="m202.36,159.65c-1.22,0-2.22,1.07-2.22,2.47s1,2.43,2.22,2.43,2.22-1.07,2.22-2.43-1-2.47-2.22-2.47Z" class="cls-6"></path><path d="m200.49,153.26c-1.22,0-2.22,1.11-2.22,2.47s1,2.47,2.22,2.47,2.22-1.11,2.22-2.47-1-2.47-2.22-2.47Z" class="cls-6"></path><path d="m196.89,147.86c-1.22,0-2.19,1.11-2.19,2.47s.97,2.47,2.19,2.47,2.22-1.11,2.22-2.47-.97-2.47-2.22-2.47Z" class="cls-6"></path><path d="m192.04,143.96c-1.22,0-2.22,1.11-2.22,2.47s1,2.47,2.22,2.47,2.19-1.11,2.19-2.47-.96-2.47-2.19-2.47Z" class="cls-6"></path><path d="m186.47,141.5c-1.22,0-2.22,1.11-2.22,2.47s1,2.47,2.22,2.47,2.22-1.11,2.22-2.47-1-2.47-2.22-2.47Z" class="cls-6"></path><path d="m180.59,140.53c-1.22,0-2.22,1.07-2.22,2.43s1,2.47,2.22,2.47,2.22-1.11,2.22-2.47-1-2.43-2.22-2.43Z" class="cls-6"></path><path d="m127.72,180.41v4.01h68.46v-3.92c-1.11-.39-2.22-.78-3.28-1.12-10.07-3.07-19-5.04-29.42-5-9.65,0-19.2,1.46-28.81,3.97-2.31.61-4.62,1.25-6.95,2.06Z" class="cls-6"></path><path d="m161.44,125.59l-1.95,3.76c.43-.19.89-.33,1.36-.42l.59-3.35h0Zm.47,8.18c1.19,0,2.12,1.04,2.12,2.36s-.93,2.36-2.12,2.36-2.12-1.07-2.12-2.36.96-2.36,2.12-2.36h0Zm4.53,9.22l-2.08-4.98c-.37.58-.91,1.02-1.53,1.25l3.62,3.73h0Zm-5.38-3.71c-.63-.2-1.16-.63-1.54-1.2l-2.06,4.91,3.6-3.71h0Zm-2.12-3.14l-4.28-2.63,4.86.64c-.37.55-.58,1.24-.58,1.97v.02h0Zm2.05-3.18l.94-5.31.95,5.33c-.31-.12-.64-.19-.99-.19-.32,0-.62.06-.91.16h0Zm3.32,1.2l4.89-.65-4.31,2.66v-.06c0-.73-.22-1.41-.58-1.96h0Zm-1.28-5.22c.48.09.94.24,1.37.44l-1.97-3.8.59,3.36h0Zm-6.17,2.53l-3.73.87,2.96.41c.22-.46.48-.89.77-1.28h0Zm-4.11,1.92l2.61,3.22c0-.16-.02-.32-.02-.48,0-.36.02-.72.07-1.07l-2.67-1.66h0Zm3.62,6.63l-.4,4.29,1.28-3.07c-.33-.37-.62-.78-.88-1.22h0Zm.38,5l2.28-2.35c.43.24.88.42,1.36.55l-3.64,1.8h0Zm6.75-1.82c.47-.13.92-.32,1.35-.56l2.33,2.39-3.67-1.83h0Zm4.41,1.03l-.4-4.3c-.25.45-.55.87-.88,1.26l1.28,3.05h0Zm.55-7.56l2.65-3.25-2.7,1.68c.04.34.06.68.06,1.03,0,.18,0,.37-.02.55h0Zm2.31-4.33l-3.82-.91c.31.41.57.85.79,1.32l3.03-.42h0Zm-7.55-2.42c1.53.4,2.83,1.49,3.62,2.96l-3.03.42-.6-3.37h0Zm4.4,5.66c.01.18.02.36.02.54,0,1.58-.53,3.03-1.4,4.14l-1.27-3.03,2.65-1.65h0Zm-3.45,6.35c-.69.33-1.45.51-2.25.51s-1.52-.17-2.2-.49l2.23-2.3,2.22,2.28h0Zm-6.53-1.63c-.88-1.11-1.42-2.58-1.42-4.18,0-.19,0-.38.02-.56l2.68,1.67-1.28,3.08h0Zm-.62-7.43c.79-1.48,2.1-2.58,3.66-2.97l-.6,3.39-3.06-.42Z" class="cls-6"></path><polygon points="161.94 176.34 168.08 178.95 161.94 181.56 155.79 178.95 161.94 176.34" class="cls-9"></polygon><path d="m161.94,177.09c.93,0,1.67.86,1.67,1.86s-.74,1.86-1.67,1.86-1.67-.82-1.67-1.86.77-1.86,1.67-1.86Z" class="cls-3"></path><polygon points="135.38 178.74 141.84 179.99 136.28 183.85 129.81 182.63 135.38 178.74" class="cls-9"></polygon><path d="m135.5,179.49c.9-.21,1.77.46,1.96,1.47.16,1-.42,1.97-1.32,2.18-.9.18-1.8-.46-1.96-1.46-.19-1,.39-2,1.32-2.18Z" class="cls-3"></path><polygon points="143.87 177.63 153.64 176.95 155.44 179.02 153.9 181.38 144.15 182.1 142.13 179.99 143.87 177.63" class="cls-9"></polygon><polygon points="144.86 178.24 152.42 177.7 153.03 179.2 152.61 180.78 145.05 181.35 144.38 179.85 144.86 178.24" class="cls-3"></polygon><polygon points="188.53 178.74 182.03 179.99 187.6 183.85 194.09 182.63 188.53 178.74" class="cls-9"></polygon><path d="m188.4,179.49c-.93-.21-1.8.46-1.99,1.47-.16,1,.42,1.97,1.32,2.18.9.18,1.8-.46,1.96-1.46.19-1-.39-2-1.29-2.18Z" class="cls-3"></path><polygon points="180.01 177.63 170.23 176.95 168.43 179.02 169.98 181.38 179.75 182.1 181.75 179.99 180.01 177.63" class="cls-9"></polygon><polygon points="179.01 178.24 171.46 177.7 170.84 179.2 171.26 180.78 178.82 181.35 179.49 179.85 179.01 178.24" class="cls-3"></polygon></svg>