<svg id="Calque_1" data-name="Calque 1" xmlns="http://www.w3.org/2000/svg" xmlns:xlink="http://www.w3.org/1999/xlink" viewBox="0 0 101.63 68.59"><defs><linearGradient id="linear-gradient" x1="28.91" y1="43.33" x2="40.63" y2="43.33" gradientUnits="userSpaceOnUse"><stop offset="0" stop-color="#ffdb87"/><stop offset="0.32" stop-color="#bd7924"/><stop offset="1" stop-color="#f8d17c"/></linearGradient><linearGradient id="linear-gradient-2" x1="34.1" y1="31.43" x2="45.18" y2="31.43" xlink:href="#linear-gradient"/><linearGradient id="linear-gradient-3" x1="15.4" y1="71.67" x2="22.86" y2="71.67" xlink:href="#linear-gradient"/><linearGradient id="linear-gradient-4" x1="99.43" y1="57.93" x2="103.98" y2="57.93" xlink:href="#linear-gradient"/><linearGradient id="linear-gradient-5" x1="82.66" y1="38.88" x2="86.71" y2="38.88" xlink:href="#linear-gradient"/><linearGradient id="linear-gradient-6" x1="73.6" y1="64.43" x2="111.09" y2="64.43" xlink:href="#linear-gradient"/><linearGradient id="linear-gradient-7" x1="12.87" y1="48.56" x2="35.47" y2="48.56" xlink:href="#linear-gradient"/><linearGradient id="linear-gradient-8" x1="78.28" y1="47.35" x2="114.51" y2="47.35" xlink:href="#linear-gradient"/><linearGradient id="linear-gradient-9" x1="48.48" y1="72.44" x2="108.07" y2="72.44" xlink:href="#linear-gradient"/><linearGradient id="linear-gradient-10" x1="19.17" y1="47.72" x2="80.12" y2="47.72" xlink:href="#linear-gradient"/><linearGradient id="linear-gradient-11" x1="61.87" y1="46.13" x2="67.31" y2="46.13" gradientTransform="translate(-12.34 26.59) rotate(-21.28)" xlink:href="#linear-gradient"/></defs><title>logo dima maghrib</title><path d="M31.3,38.8a12.23,12.23,0,0,0-.8-1,2.53,2.53,0,0,0-.72-.46l-.35-.17h-.06s0,0,0,0-.11.27-.17.4a1.46,1.46,0,0,0-.23.91,3.77,3.77,0,0,0,.48,1,5.44,5.44,0,0,1,.37.67c.14.34.31.68.47,1A7.87,7.87,0,0,1,31.2,44a4,4,0,0,0,1.93,3.27l.41.29c.78.52,1.58,1.07,2.34,1.63a1.48,1.48,0,0,0,.85.33,1.5,1.5,0,0,0,1-.54A9.16,9.16,0,0,1,38.88,48a10.66,10.66,0,0,0,1.06-.85,2.17,2.17,0,0,0,.68-1.36,6.23,6.23,0,0,0-.19-1.54c0-.14-.06-.25-.07-.34,0-1.08,0-1.65-.33-1.93s-.72-.25-1.51-.17A7.39,7.39,0,0,1,32.34,40,11,11,0,0,1,31.3,38.8Z" transform="translate(-12.87 -15.57)" style="fill:url(#linear-gradient)"/><path d="M34.27,33.81c-.05.13-.12.27-.17.41a.08.08,0,0,0,0,.08l.05,0h0l.37-.15,1-.44a.49.49,0,0,0,.19-.16l.09-.09c1.65-1.4,3.91-2.84,6.83-1.54a2.11,2.11,0,0,0,.5.1l.2,0,.2.2a.09.09,0,0,0,.1,0l1.45-1.33a.14.14,0,0,0,0-.06.09.09,0,0,0,0-.06l-.43-.36a2.42,2.42,0,0,0-1-.67C41.9,29.32,40,28.92,38,28.59A2.93,2.93,0,0,0,36,29a8.31,8.31,0,0,0-1.56,1.22c-.14.14-.08.46,0,.79a3.83,3.83,0,0,1,.07.43c0,.14,0,.28,0,.41a4.36,4.36,0,0,1,0,1.08A3.57,3.57,0,0,1,34.27,33.81Z" transform="translate(-12.87 -15.57)" style="fill:url(#linear-gradient-2)"/><path d="M22.86,73.61a.14.14,0,0,0,0-.06l-.32-.37a4.32,4.32,0,0,0-.76-.78c-1.79-1.32-3.42-2.48-5-3.53a2.1,2.1,0,0,0-.88-.25,2.7,2.7,0,0,1-.41-.08l-.07,0a.07.07,0,0,0,0,.07c0,.12,0,.26.07.39a1.65,1.65,0,0,0,.25.81A45.85,45.85,0,0,0,19,73.67a3.9,3.9,0,0,0,1.34.77c.25.11.5.21.75.34h.08l1.69-1.12A.09.09,0,0,0,22.86,73.61Z" transform="translate(-12.87 -15.57)" style="fill:url(#linear-gradient-3)"/><path d="M100.87,60.76h0c.12,0,.2,0,.23-.07.74-.93,1.43-1.91,2.16-2.94l.65-.93a.08.08,0,0,0,0-.09c-.16-.18-.29-.36-.43-.53a6,6,0,0,0-1-1,.67.67,0,0,0-.4,0,1.2,1.2,0,0,0-.72.35,19.34,19.34,0,0,0-2,3.26c-.14.33,0,.89.55,1.71A1.29,1.29,0,0,0,100.87,60.76Z" transform="translate(-12.87 -15.57)" style="fill:url(#linear-gradient-4)"/><path d="M83.4,41.16a1,1,0,0,0,.6.15h.2a.83.83,0,0,0,.54-.21,25.45,25.45,0,0,0,1.43-2.36l.53-.94a.06.06,0,0,0,0-.08c-.08-.12-.16-.27-.23-.4a1.55,1.55,0,0,0-.58-.76,1.45,1.45,0,0,0-1.37.15,13.25,13.25,0,0,0-1.82,2.94C82.53,40,83,40.81,83.4,41.16Z" transform="translate(-12.87 -15.57)" style="fill:url(#linear-gradient-5)"/><path d="M109.35,61.59a2.37,2.37,0,0,0-2.2.7A18.61,18.61,0,0,0,105,64.65c-.26.31-.52.63-.79.94s-.55.69-.81,1c0,.05-.09.12-.14.18a10.06,10.06,0,0,1,.52-1.3,11.66,11.66,0,0,0,.46-1.16,21.39,21.39,0,0,1,3.06-5.91l.74-1c.15-.2.29-.41.44-.62.73-1,0-1.78-.57-2.26a1.11,1.11,0,0,0-.9-.26,1.67,1.67,0,0,0-1,.87l-.52,1c-1.39,2.55-2.83,5.18-4.09,7.84-.1.22-.2.44-.31.66a20.1,20.1,0,0,1-3.39,5.57,4.2,4.2,0,0,1-.55.48l-.23.18-.19-.12c.06-.17.11-.34.16-.5A7.9,7.9,0,0,1,97.32,69c.44-.9.91-1.81,1.36-2.69s.9-1.77,1.34-2.66a1.9,1.9,0,0,0,.15-1.51,1.57,1.57,0,0,0-.91-.91c-1-.45-1.39.31-1.7.91a.8.8,0,0,1-.08.16c-.42.81-.83,1.63-1.23,2.43-.65,1.31-1.33,2.67-2,4a10.6,10.6,0,0,1-1.26,1.67l-.59.69L92,70.88l.06-.34a3,3,0,0,1,.2-.78l.25-.57c.75-1.68,1.53-3.41,2.36-5.08a2.47,2.47,0,0,0,.23-2.38,2.5,2.5,0,0,0-2.24-.89c-.26,0-.52,0-.78,0a7,7,0,0,1-1.83-.11c-1-.26-1.5,0-1.89,1-.75,1.91-1.57,4-2.52,6a13.47,13.47,0,0,1-1.28,2c-.19.27-.4.55-.59.84l-.37-.17.09-.46A6,6,0,0,1,84,68.81c.37-1,.78-2.09,1.17-3.1.19-.49.38-1,.58-1.5.32-.86.5-1.74-.33-2.4s-1.72-.26-2.5.26a17,17,0,0,0-4.63,5.16,15,15,0,0,1-1,1.34l-.45.56-.28-.19c.25-.48.49-1,.73-1.45.55-1.11,1.12-2.25,1.74-3.33.81-1.42,1.66-2.84,2.48-4.21.63-1.06,1.27-2.14,1.9-3.22a1.53,1.53,0,0,0-.51-2.29.93.93,0,0,0-1.11,0,2.84,2.84,0,0,0-.7.83v0c-1.07,1.66-2.18,3.43-3.3,5.27a29.14,29.14,0,0,0-4.06,9.71,4.56,4.56,0,0,0,.51,2.87q.47.82,1,.84h0c.42,0,.84-.35,1.27-1,1.54-2.51,3.21-5,4.82-7.4l.54-.81a2.55,2.55,0,0,1,.64-.57l.3-.21.15.12a2.41,2.41,0,0,0-.08.25,3.92,3.92,0,0,1-.24.63,17.57,17.57,0,0,0-1.78,6.59A2.66,2.66,0,0,0,81,73a2.13,2.13,0,0,0,1,1,2,2,0,0,0,.87.22,1.94,1.94,0,0,0,1.61-1c1.23-2,2.33-4.23,3.4-6.33l0-.1c.27-.53.49-1.1.71-1.65s.41-1,.65-1.54a1.43,1.43,0,0,1,1-.58,1.45,1.45,0,0,1,1.17.14,1,1,0,0,1,.16.82c-.27.74-.56,1.48-.85,2.2-.46,1.18-1,2.41-1.33,3.64a4.52,4.52,0,0,0,0,2.8A2,2,0,0,0,91,74a2.2,2.2,0,0,0,2-1c.36-.45.62-.71.85-.71h0c.24,0,.51.28.88.77.55.71,1,1,1.49,1h0c.46,0,.92-.32,1.46-1,0-.06.09-.13.14-.2a.86.86,0,0,1,.28-.33,1.49,1.49,0,0,1,.72-.11,2.24,2.24,0,0,0,2.11,1.4,3.8,3.8,0,0,0,.91-.12c.14,0,.34.1.54.23a1.83,1.83,0,0,0,.26.16,4.14,4.14,0,0,0,1.92.53h.31a3.83,3.83,0,0,0,2-1A12.42,12.42,0,0,0,111,66.54a6.53,6.53,0,0,0-.14-3.1A2.43,2.43,0,0,0,109.35,61.59Zm-.66,3.63a11.93,11.93,0,0,1-1,2.42,29.72,29.72,0,0,1-3.16,4.12,2.67,2.67,0,0,1-1.58.62,1,1,0,0,1-1-.4.92.92,0,0,1,.13-1c1.55-2.18,3.26-4.46,5.36-7.17a2,2,0,0,1,1.18-.51,1.87,1.87,0,0,1,.28.45c.06.12.12.25.19.36C108.94,64.47,108.81,64.85,108.69,65.22Z" transform="translate(-12.87 -15.57)" style="fill:url(#linear-gradient-6)"/><path d="M18.76,65.49c.09.33.6.51,1.13.69a6.82,6.82,0,0,1,.65.25h.06a0,0,0,0,0,0,0c.05-.16.1-.31.16-.47a3.77,3.77,0,0,0,.26-1.09,3.5,3.5,0,0,0-.24-1.08c-.05-.13-.09-.27-.13-.4l.28-.2,3.25,2.73a.07.07,0,0,0,.09,0l.32-.28a.07.07,0,0,0,0-.09l-1.19-2.22.14-.17.54.24a12.64,12.64,0,0,1,1.29.61,2.92,2.92,0,0,0,1.3.5.71.71,0,0,0,.32-.07,1.38,1.38,0,0,0,.69-1,1.48,1.48,0,0,0,2.17-.77c.84-1.51,1.71-3,2.56-4.5s1.54-2.69,2.3-4c.52-.92.83-1.52.66-2S34.88,51.38,34,51h0a1.21,1.21,0,0,1-.33-.24,2.11,2.11,0,0,0-.23-.19c-.92-.64-1.85-1.31-2.75-2-2.17-1.56-4.41-3.16-6.76-4.52a6.57,6.57,0,0,1-3.21-4.67,1.05,1.05,0,0,1,.79-1.39,25.47,25.47,0,0,0,2.57-1,1.69,1.69,0,0,0,.9-.88c0-.21-.21-.46-.49-.72l-.21-.22c-.31-.32-.63-.64-.93-1l-.32-.31.44-.17a7.2,7.2,0,0,1,1.2-.36c1-.17,2.08-.32,3.1-.47s2.36-.34,3.54-.53a1.64,1.64,0,0,0,.72-.45,3.65,3.65,0,0,1,.31-.24s0,0,0-.06a.09.09,0,0,0,0-.06,3.76,3.76,0,0,1-.29-.28,1.43,1.43,0,0,0-.71-.49,14.09,14.09,0,0,0-3-.12c-1.47.13-2.95.3-4.38.46s-2.73.3-4.1.43-1.93.37-2.29.85a2.93,2.93,0,0,0-.15,2.37,3.82,3.82,0,0,0,.89,1.56,4.67,4.67,0,0,1,1.14,3.54,4.45,4.45,0,0,1-1.84,3c-.38.28-.69.38-.91.29s-.35-.35-.41-.77c-.15-1-.2-2.06-.25-3.07,0-.32,0-.65,0-1s0-.74,0-1.11v-.5a.08.08,0,0,0-.05-.07l-.49-.16a.08.08,0,0,0-.09,0c-.09.18-.19.36-.29.53a4.17,4.17,0,0,0-.55,1.22,28.91,28.91,0,0,0-.71,4.5,5.36,5.36,0,0,0,.26,1.72,9.52,9.52,0,0,1,.23,1,1.43,1.43,0,0,1-.14,1,5.58,5.58,0,0,0-1.13,4c0,1.22-.05,2.45-.11,3.64-.05,1-.1,2.1-.11,3.15a2.06,2.06,0,0,0,.68,1.47C16.09,60.82,18,62.69,18.76,65.49ZM14.9,53.07c0-1.11,0-2.3-.07-3.47a2.31,2.31,0,0,1,1.53-2.5l.46-.14a15.56,15.56,0,0,1,4.52-1h.3c1.05,0,2.18,1.14,3.08,2l.05,0a9.37,9.37,0,0,1,2.7,6.79,6.65,6.65,0,0,0,.43,1.84c.1.31.21.62.29.93s.11.54.15.8l0,.22c-.55-.25-1.08-.52-1.6-.78a20.84,20.84,0,0,0-3.66-1.54,22.17,22.17,0,0,0-4.68-.55l-.9-.05a3,3,0,0,1-2-.67A2.71,2.71,0,0,1,14.9,53.07Z" transform="translate(-12.87 -15.57)" style="fill:url(#linear-gradient-7)"/><path d="M114.5,45.65a1.48,1.48,0,0,1,0-.21.08.08,0,0,0,0,0s0,0-.06,0c-1.87.08-3,1.27-4.08,2.41a9.72,9.72,0,0,1-2,1.78,10.69,10.69,0,0,1,.78-2.15c.18-.39.38-.78.57-1.15a18.34,18.34,0,0,0,1.09-2.44,2,2,0,0,0-.5-1.7.82.82,0,0,0-.66-.3,1.45,1.45,0,0,0-1,.67c-.23.31-.43.47-.64.49a1.1,1.1,0,0,1-.8-.4,3.93,3.93,0,0,0-3.08-1.31,3.87,3.87,0,0,0-2.61,2c-.51.8-1,1.64-1.42,2.46s-.86,1.55-1.33,2.3a9.15,9.15,0,0,1-1.17,1.4l-.54.57-.3-.2.06-.3a5.59,5.59,0,0,1,.2-.73c.17-.46.36-.92.55-1.36a24.49,24.49,0,0,0,1-2.79,2.57,2.57,0,0,0-.33-2.11,1.24,1.24,0,0,0-.94-.21,2.08,2.08,0,0,0-1,.3,19.88,19.88,0,0,0-2.91,2.81,23.54,23.54,0,0,0-1.57,2l-.62.86-.14-.1c0-.09.07-.19.1-.29s.19-.5.29-.74.26-.6.39-.89a13.86,13.86,0,0,0,.79-2,1.91,1.91,0,0,0-.28-1.67,2,2,0,0,0-1.78-.25,7.69,7.69,0,0,0-2.09,1.78c-.85,1-1.66,2-2.45,3l-1,1.2-.15-.11c.08-.17.17-.35.25-.53.2-.43.42-.88.65-1.3s.46-.77.69-1.15.58-.93.84-1.42a1.66,1.66,0,0,0,.22-1.09,1.3,1.3,0,0,0-.68-.89,1,1,0,0,0-.79-.15c-.41.12-.66.55-.89,1-.73,1.39-1.37,2.79-2,4.09a5.12,5.12,0,0,1-2.67,3,3,3,0,0,1,.33-1.22c.36-.7.72-1.42,1.08-2.11l1.15-2.26a2,2,0,0,0,.21-1.58,1.41,1.41,0,0,0-.75-.81,1.28,1.28,0,0,0-1-.1c-.48.19-.72.75-.92,1.26l-.16.42c-.71,1.84-1.44,3.75-2,5.68a5.67,5.67,0,0,0,0,2.86,1.47,1.47,0,0,0,1,1.13,1.43,1.43,0,0,0,1.37-.49c.5-.54.77-.85,1-.85h0c.24,0,.5.3,1,.89a1.3,1.3,0,0,0,1.2.55,1.08,1.08,0,0,0,.68-.89,13.81,13.81,0,0,1,3-5.46l.45-.59A12.62,12.62,0,0,1,89.35,45l.49-.5.21.15-.12.31-.31.79c-.12.37-.26.74-.4,1.1a18.46,18.46,0,0,0-.9,2.88,4.23,4.23,0,0,0,.47,2.4,1.8,1.8,0,0,0,1.33.89c.35,0,.81-.74.93-1.15a19,19,0,0,1,3.59-6.16,7.74,7.74,0,0,1,.81-.81l.35-.32.26.18-.25.52a7.22,7.22,0,0,0-.55,1.32l-.21.74a14.13,14.13,0,0,0-.71,3.44,3,3,0,0,0,1.32,2.12c.77.51,1.36-.23,1.83-.83l.09-.11c.45-.56.69-.85.88-.85h0c.2,0,.44.33.88.92h0a4.6,4.6,0,0,0,1.24,1.15,1.35,1.35,0,0,0,.76.25,1.22,1.22,0,0,0,1-.62c.3-.43.58-.88.85-1.32s.58-.94.89-1.4.84-1.18,1.27-1.75l.53-.72.19.12v.13c0,.13,0,.26,0,.39,0,.3-.07.61-.12.92a6.72,6.72,0,0,0-.08,2.14A2.83,2.83,0,0,0,107.42,53c.37.16,1.28-.48,1.62-1s.62-.87.92-1.29a15.81,15.81,0,0,1,4.49-4.84C114.52,45.88,114.51,45.79,114.5,45.65Zm-8-.65c-1.36,1.73-2.82,3.53-4.6,5.65a1.1,1.1,0,0,1-.49.27l-.05,0-.24.09-.09-.21,0-.08-.07-.18,0-.05a.42.42,0,0,1,0-.22,11,11,0,0,1,3.93-6.61,2.18,2.18,0,0,1,.55-.29l.36-.16a2.31,2.31,0,0,0,.35.18,1.61,1.61,0,0,1,.7.52A1.3,1.3,0,0,1,106.49,45Z" transform="translate(-12.87 -15.57)" style="fill:url(#linear-gradient-8)"/><path d="M106,77.47c-1-.1-1.94-.15-2.9-.2-1.33-.08-2.7-.16-4-.35-3.15-.47-6.57-.78-10.47-1-3.47-.17-6.95-.23-10.5-.27-.61,0-1.23,0-1.84.07-.42,0-.85.06-1.28.07l-.9,0c-1.12,0-2.27.08-3.4,0-.7,0-1.13-.1-1.25-.3s0-.6.31-1.26l1.56-3.44c1-2.16,2-4.4,3-6.62a4.26,4.26,0,0,0,.31-2c0-.35-.52-.8-.89-.9s-.8.26-1,.52c-.44.55-.71.83-1,.85s-.56-.24-1-.7a4.15,4.15,0,0,0-2.3-1.29,3.13,3.13,0,0,0-2.44.72,15.28,15.28,0,0,0-3.08,3.6,8.29,8.29,0,0,0-.78,1.68A9.57,9.57,0,0,1,61.53,68a6,6,0,0,1-2.42,2.61,5.35,5.35,0,0,1,.43-1.78c.53-1.18,1.09-2.36,1.64-3.51L62,63.55a1.85,1.85,0,0,0,.16-1.3,1.71,1.71,0,0,0-.82-1,1,1,0,0,0-.78-.16c-.41.11-.69.54-.92.93s-.44.56-.68.6-.74-.26-1.14-.62a3.88,3.88,0,0,0-2.53-1.16,3.94,3.94,0,0,0-2.61,1A11.67,11.67,0,0,0,48.79,68a14,14,0,0,0-.22,4.63c.08,1,.85,1.69,2.12,2a1.61,1.61,0,0,0,.37,0c.74,0,1.17-.61,1.56-1.17l.05-.07c.26-.37.51-.75.75-1.12.37-.55.75-1.12,1.14-1.65.52-.7,1.08-1.39,1.61-2.05l.68-.84.33.19c0,.14-.09.28-.13.41-.11.35-.22.72-.31,1.08,0,.14-.07.28-.11.42a8,8,0,0,0-.3,1.45,3.18,3.18,0,0,0,.37,1.79,2,2,0,0,0,1.24,1c1,.27,1.55-.44,2-1.07l.23-.31,0,0c.45-.57.69-.88.87-.87s.4.39.76,1a2.42,2.42,0,0,0,1.85,1.44,2.45,2.45,0,0,0,2-1.24c.89-1.2,1.85-2.49,2.8-3.74a1.5,1.5,0,0,1,.36-.28l.08,0a4.14,4.14,0,0,1-.47,1.71l-1,1.9c-.89,1.81-1.81,3.67-2.84,5.43l-.11.18c-1.25,2.13-2.54,4.33-5.6,4.08-.08,0-.15.08-.22.17a.7.7,0,0,1-.06.09.05.05,0,0,0,0,.08,3.32,3.32,0,0,0,2.19,1.47,4.18,4.18,0,0,0,.92.1A3.92,3.92,0,0,0,64,83.52a13.19,13.19,0,0,0,4.07-5.16,1.88,1.88,0,0,1,2-1.2l1.37.08c1.66.1,3.39.19,5.08.2,6.78,0,13.51,1.25,20,2.43l4.32.77c2.09.36,3.79.6,5.35.77a1.7,1.7,0,0,0,1.4-.52A2.06,2.06,0,0,0,106,77.47ZM57.53,64.67c-.77.89-1.6,1.85-2.54,2.92l-2.42,2.72-1.12,1.25-.51.56s-.12.07-.29.12l-.4.11c.08-.36.15-.7.21-1,0-.16.06-.32.1-.47s0-.21.06-.3A5.82,5.82,0,0,1,51,69.28a29,29,0,0,1,1.71-3l.12-.19.12-.17c.24-.35.49-.68.73-1a7.44,7.44,0,0,1,2.59-1.74.33.33,0,0,1,.17,0,1.88,1.88,0,0,1,1.07.49.53.53,0,0,1,.11.28A1.17,1.17,0,0,1,57.53,64.67Zm7.16,6.63a3.14,3.14,0,0,1-.67.49l-.37.23c0-.13,0-.24-.06-.34a1.26,1.26,0,0,1-.05-.52c.65-2.61,1.66-5.55,4.25-7.51a2.82,2.82,0,0,1,1.59-.54h.11a1.12,1.12,0,0,1,1,.62,1.11,1.11,0,0,1-.25,1.15C68.35,67.15,66.38,69.38,64.69,71.3Z" transform="translate(-12.87 -15.57)" style="fill:url(#linear-gradient-9)"/><path d="M54.92,76.51a5.35,5.35,0,0,0-3.37.79,8.17,8.17,0,0,1-4.84.87,2.45,2.45,0,0,1-1.7-.84,2.21,2.21,0,0,1-.35-1.7,26.52,26.52,0,0,1,.88-4.09C47.24,66,50.15,60.83,53,55.87l.36-.62a14.74,14.74,0,0,0,2.24-7,.08.08,0,0,0,0,0h0c.2-1.15.49-2.4.85-3.75.69,0,1.66,0,2.88,0a2.25,2.25,0,0,0,.84-.13h.15c.23-.06.41-.29.6-.74a23,23,0,0,1,1.88-3.78,12.51,12.51,0,0,1,5.52-4.07c2.69-1.17,5-2.19,7.9-1.06a2.74,2.74,0,0,1,2,3,9.25,9.25,0,0,1-.49,2.2A21,21,0,0,1,66.79,52.33c-1.81.89-3.86,1.91-6.06.57a1.07,1.07,0,0,0-.55,0c-.15,0-.35,0-.6,0a.06.06,0,0,0-.06,0s0,0,0,.08c.17.21.29.39.41.55a3.26,3.26,0,0,0,.56.69,5.24,5.24,0,0,0,3.44,1.25,7.68,7.68,0,0,0,1.47-.16,17.25,17.25,0,0,0,7-3.65,23.42,23.42,0,0,0,4.25-4.32A20.82,20.82,0,0,0,79.5,42a9.21,9.21,0,0,0,.57-4.12,6,6,0,0,0-1.24-3.07,8,8,0,0,0-7.08-2.65,15.63,15.63,0,0,0-6.38,2.07A18.77,18.77,0,0,0,61.77,37c-.11-.42-.48-.64-1.1-.64H59c.4-1,.75-1.83,1-2.51h.24a2.75,2.75,0,0,1,.41,0h0a.05.05,0,0,0,.05,0,.08.08,0,0,0,0-.07,2.79,2.79,0,0,1-.09-.34,2.32,2.32,0,0,0-.18-.6,4.26,4.26,0,0,0,.39-1,.46.46,0,0,0-.36-.47l.25,0c1.6-.24,3.1-.47,4.59-.72a3.1,3.1,0,0,0,.94-.4c.13-.07.27-.15.41-.21a.1.1,0,0,0,0-.05s0-.05,0-.06l-.3-.42a2,2,0,0,0-.76-.79L64.6,28.2c-2.16-.91-4.4-1.86-6.86-1.48-3.82.59-6.55-1.37-9-3.43a8.81,8.81,0,0,0-4.36-2.2,3.24,3.24,0,0,1-.72-.25l-.29-.12,0-.26.45-.07a2.16,2.16,0,0,1,1,0l.23.08a11.48,11.48,0,0,1,3.1,1.41,13.54,13.54,0,0,0,7.19,2.49,8.5,8.5,0,0,0,2.25-.24c.38-.08.78-.16,1.21-.22a.06.06,0,0,0,.06-.05.09.09,0,0,0,0-.07l-.33-.46a1.24,1.24,0,0,0-.34-.41l-2.8-1.82c-1.45-.94-3-1.91-4.4-2.89a14,14,0,0,0-9.92-2.49,13.1,13.1,0,0,0-4.58,1.56,14.61,14.61,0,0,0-3.9,3.19,7.74,7.74,0,0,1-1.84,1.39l-.83.53a12.25,12.25,0,0,1-1.36.78c-1.2.64-2.45,1.29-3,2.81-.1.28-.56.49-.93.65l-.19.09c-.3.14-.63.26-.94.37s-.57.2-.85.32c-.83.37-1.67.76-2.48,1.14l-1,.47a.07.07,0,0,0,0,.08l.11.5a.07.07,0,0,0,.07.06h.48a6.06,6.06,0,0,0,1-.07L23.79,29c1-.22,2-.44,3.06-.64.38-.08.73-.17.85-.42a.9.9,0,0,0-.12-.78,1,1,0,0,1,.07-.79A2.78,2.78,0,0,1,31,25.13a3.55,3.55,0,0,0,1.44.22c1.64-.2,3.3-.47,4.72-.71l.55-.09c3.19-.54,6.49-1.1,9.67.33.22.1.43.22.64.34l.25.14-.07.27-.66-.05c-.6,0-1.21-.11-1.81-.12a2.39,2.39,0,0,0-.75.16l-.32.1a.09.09,0,0,0,0,.11l.17.31a3.86,3.86,0,0,0,.42.66c.76.89,1.53,1.76,2.29,2.6l.2.25c.21.27.43.55.69.57a9.22,9.22,0,0,1,1.85.38,6,6,0,0,0,3.33.24,4.41,4.41,0,0,1,4.78,1.54,2.88,2.88,0,0,1,.3.39c-.41.75-1,2-1.67,3.65-1,0-2.44,0-4.35.1.48-1.19.88-2.13,1.21-2.83s.46-1,.55-1.24a2.66,2.66,0,0,0,.13-.82c0-.21-.2-.31-.58-.31s-1,.49-1.54,1.47a32.13,32.13,0,0,0-1.78,3.87,14.81,14.81,0,0,0-3.45.41,1,1,0,0,0-.7,1c0,.57.42.85,1.24.85.24,0,1-.09,2.11-.26q-.45,1-1.47,4a11.17,11.17,0,0,0-3,.33c-.39.16-.58.4-.58.7,0,.77.24,1.16.73,1.16l2.21-.18a22,22,0,0,0-1,4.07c0,.65.31,1,.93,1a1.74,1.74,0,0,0,.85-.24.91.91,0,0,0,.49-.61c.26-1.33.61-2.77,1.05-4.31l4.13-.08a26.54,26.54,0,0,0-.8,3.32.15.15,0,0,0,0,.1V48c0,.06,0,.12,0,.15v0a10.73,10.73,0,0,1-.82,2.87c-.82,1.16-1.71,2.31-2.57,3.42L48.26,56.6l-3.39,4.57c-1.51,2-3.08,4.15-4.63,6.22a8.7,8.7,0,0,1-1.07,1.12l-.49.46-.24-.13c0-.17,0-.34.05-.51a6.37,6.37,0,0,1,.16-1.15c.44-1.71.91-3.45,1.36-5.13.41-1.51.83-3.07,1.24-4.61s.8-3.12,1.14-4.79a2,2,0,0,0-.13-1.28,1.7,1.7,0,0,0-1-.83c-.85-.3-1.18.37-1.45.9l-.1.21c-.26.49-.51,1-.76,1.48-.4.82-.82,1.66-1.28,2.46-1.17,2-2.39,4-3.57,6l-1.94,3.25c-2.62,4.44-5,8-9.08,10.22-.56.31-.86.67-.85,1s.31.73.89,1a2.22,2.22,0,0,0,1.72.13,12.23,12.23,0,0,0,3-2,47.73,47.73,0,0,0,8.22-11,4.44,4.44,0,0,1,.53-.7,3.11,3.11,0,0,0,.23-.28l.22.1c0,.12,0,.25,0,.37,0,.31-.06.62-.1.93-.06.53-.14,1.07-.22,1.6a33.5,33.5,0,0,0-.4,3.76,5,5,0,0,0,.86,2.57,1.24,1.24,0,0,0,.9.66,1.43,1.43,0,0,0,1.14-.49c.47-.48.93-1,1.36-1.47l.27-.3c.78-.86,1.57-1.74,2.33-2.6.29-.32.58-.65.88-1a1.37,1.37,0,0,1,0,.86c-.17.58-.37,1.16-.56,1.73a27.13,27.13,0,0,0-1,3.68,7,7,0,0,0,0,2.94,4.37,4.37,0,0,0,1.23,2.12,4.54,4.54,0,0,0,3.16,1.14,7.37,7.37,0,0,0,1.86-.26A25.39,25.39,0,0,0,53,77.93c.59-.28,1.19-.56,1.79-.82.08,0,.1-.12.14-.26s0-.15.07-.25a.06.06,0,0,0,0-.06A.05.05,0,0,0,54.92,76.51Zm4.81-45a1.9,1.9,0,0,0-.35.31l-.27-.22ZM58.3,38.36h.92a9.93,9.93,0,0,0,1.34-.08l-.28.32v0a21.57,21.57,0,0,0-1.54,3.87l-1.8,0C57.47,40.74,57.92,39.36,58.3,38.36Zm-7.71,4.28c.42-1.4.87-2.78,1.37-4.13.9,0,2.32-.09,4.28-.13l0,.08a.31.31,0,0,0,0,.08c-.6,1.54-1.08,2.87-1.45,4Z" transform="translate(-12.87 -15.57)" style="fill:url(#linear-gradient-10)"/><rect x="63.64" y="40.42" width="1.9" height="11.42" rx="0.79" transform="translate(8.27 -35.86) rotate(21.28)" style="fill:url(#linear-gradient-11)"/></svg>